<svg width="24" height="24" viewBox="0 0 24 24" fill="none" xmlns="http://www.w3.org/2000/svg">
<path fill-rule="evenodd" clip-rule="evenodd" d="M14.7248 3.42988C13.2441 1.8567 10.7439 1.85671 9.26329 3.42988L4.26925 8.73605C3.61455 9.43167 3.25 10.3509 3.25 11.3062V17.2981C3.25 19.2783 4.7897 20.9173 6.76608 21.0408L12 21.3679L17.2322 21.0409C19.2095 20.9173 20.7495 19.2771 20.7483 17.296L20.7447 11.311C20.7442 10.3565 20.3797 9.43816 19.7255 8.74311L14.7248 3.42988ZM11.8692 13.0769C11.9494 13.0276 12.0506 13.0276 12.1308 13.0769L14.1308 14.3049C14.2049 14.3504 14.25 14.4311 14.25 14.518V17.1164C14.25 17.5307 14.5858 17.8664 15 17.8664C15.4142 17.8664 15.75 17.5307 15.75 17.1164V14.518C15.75 13.9097 15.4341 13.345 14.9157 13.0267L12.9157 11.7986C12.354 11.4537 11.646 11.4537 11.0843 11.7986L9.08429 13.0267C8.5659 13.345 8.25 13.9097 8.25 14.518V17.1164C8.25 17.5307 8.58579 17.8664 9 17.8664C9.41421 17.8664 9.75 17.5307 9.75 17.1164V14.518C9.75 14.4311 9.79513 14.3504 9.86918 14.3049L11.8692 13.0769Z" fill="#E0B420"/>
</svg>
